SplineFontDB: 3.2
FontName: Untitled1
FullName: Untitled1
FamilyName: Untitled1
Weight: Regular
Copyright: Copyright (c) 2019,  
UComments: "2019-9-26: Created with FontForge (http://fontforge.org)"
Version: 001.000
ItalicAngle: 0
UnderlinePosition: -101
UnderlineWidth: 50
Ascent: 819
Descent: 205
InvalidEm: 0
LayerCount: 2
Layer: 0 0 "Back" 1
Layer: 1 0 "Fore" 0
XUID: [1021 877 -1097051598 7487691]
BaseHoriz: 0
StyleMap: 0x0000
FSType: 0
OS2Version: 0
OS2_WeightWidthSlopeOnly: 0
OS2_UseTypoMetrics: 1
CreationTime: 1569547696
ModificationTime: 1569550615
PfmFamily: 17
TTFWeight: 400
TTFWidth: 5
LineGap: 92
VLineGap: 92
OS2TypoAscent: 0
OS2TypoAOffset: 1
OS2TypoDescent: 0
OS2TypoDOffset: 1
OS2TypoLinegap: 92
OS2WinAscent: 0
OS2WinAOffset: 1
OS2WinDescent: 0
OS2WinDOffset: 1
HheadAscent: 0
HheadAOffset: 1
HheadDescent: 0
HheadDOffset: 1
OS2Vendor: 'PfEd'
MarkAttachClasses: 1
DEI: 91125
LangName: 1033
Encoding: ISO8859-1
UnicodeInterp: none
NameList: AGL For New Fonts
DisplaySize: -48
AntiAlias: 1
FitToEm: 0
WinInfo: 0 23 8
BeginPrivate: 0
EndPrivate
TeXData: 1 0 0 346030 173015 115343 20992 -1048576 115343 783286 444596 497025 792723 393216 433062 380633 303038 157286 324010 404750 52429 2506097 1059062 262144
AnchorClass2: """"  "newwidth""" 
BeginChars: 256 28

StartChar: a
Encoding: 97 97 0
Width: 2046
VWidth: 0
Flags: W
HStem: 501 44<389.189 472.333> 615 34<392.713 430> 617 40<366.654 429.316>
VStem: 325 186
AnchorPoint: "" 2046 1584 basechar 0
AnchorPoint: "newwidth" 2046 1584 mark 0
AnchorPoint: "newwidth" 2054 1864 basechar 0
LayerCount: 2
Fore
SplineSet
511 562 m 1xd0
 505 548 484 526 454 513 c 0
 440 506 423 501 404 501 c 0
 386 501 370 502 355 502 c 0
 341 502 329 501 325 501 c 2
 322 513 l 1
 355 549 404 587 430 615 c 1xd0
 419 615 397 617 388 617 c 0
 380 617 372 614 364 610 c 1
 361 616 l 1
 364 641 376 657 392 657 c 0xb0
 407 657 436 649 464 649 c 0
 474 649 484 650 494 651 c 1
 500 645 l 1
 465 607 411 566 389 543 c 1
 393 544 399 545 409 545 c 0
 419 545 434 543 450 543 c 0
 459 543 467 546 478 554 c 0
 488 561 496 567 500 575 c 1
 511 562 l 1xd0
EndSplineSet
Validated: 1
EndChar

StartChar: b
Encoding: 98 98 1
Width: 2046
VWidth: 0
Flags: W
HStem: 649 54<528.526 754.901> 794 16<676 695.02>
LayerCount: 2
Fore
SplineSet
676 810 m 1
 690 810 707 802 723 791 c 0
 748 775 767 754 779 726 c 0
 788 706 805 668 775 655 c 0
 766 651 755 649 716 649 c 2
 593 650 l 2
 544 650 517 671 497 716 c 0
 483 749 481 765 497 772 c 0
 500 773 504 775 508 775 c 2
 551 729 l 2
 544 730 529 729 525 728 c 0
 522 727 522 724 525 717 c 0
 528 709 534 705 548 705 c 2
 718 703 l 2
 744 703 753 704 755 705 c 0
 758 706 759 712 756 719 c 0
 739 758 698 794 668 794 c 1
 676 810 l 1
EndSplineSet
Validated: 33
EndChar

StartChar: c
Encoding: 99 99 2
Width: 2046
VWidth: 0
Flags: W
HStem: 420 38<637.148 687.662> 658 25<550.146 584.314>
VStem: 471 58<422 478.229>
LayerCount: 2
Fore
SplineSet
729 480 m 2
 717 453 665 420 641 420 c 0
 618 420 608 427 604 450 c 0
 601 468 599 503 596 539 c 1
 563 508 537 466 529 422 c 1
 471 422 l 1
 484 488 531 534 593 567 c 1
 590 615 587 633 585 644 c 0
 584 653 574 658 560 658 c 0
 553 658 550 662 550 668 c 0
 550 678 555 683 582 683 c 0
 632 683 641 669 644 601 c 1
 667 619 677 642 690 682 c 1
 748 682 l 1
 730 632 690 597 647 573 c 1
 650 526 655 482 658 466 c 0
 658 459 663 458 667 458 c 0
 682 458 713 481 719 495 c 1
 730 481 l 1
 729 480 l 2
EndSplineSet
Validated: 1
EndChar

StartChar: d
Encoding: 100 100 3
Width: 2046
VWidth: 0
Flags: W
HStem: 673 34<969.151 1003.81 1070.61 1105> 674 21<1035.37 1105.63> 742 18<1014 1021 1074 1096> 788 24<1084.2 1137.44>
VStem: 969 190
LayerCount: 2
Fore
SplineSet
1105 680 m 2x78
 1096 676 1083 674 1070 674 c 0x78
 1052 674 1030 677 1013 680 c 1
 1004 675 994 673 987 673 c 0
 973 673 969 679 969 687 c 0
 969 697 973 707 985 707 c 0xb8
 991 707 1000 704 1004 703 c 0
 1008 709 1012 715 1021 742 c 1
 1001 742 l 1
 1014 760 l 1
 1028 760 l 1
 1044 802 1071 812 1114 812 c 0
 1138 812 1150 812 1159 811 c 1
 1134 784 l 2
 1129 786 1116 788 1105 788 c 0
 1093 788 1081 777 1074 760 c 1
 1113 760 l 1
 1096 742 l 1
 1065 742 l 1
 1059 714 1049 705 1035 697 c 1
 1038 696 1045 695 1052 695 c 0
 1074 695 1105 702 1119 710 c 1
 1105 680 l 2x78
EndSplineSet
Validated: 1
EndChar

StartChar: e
Encoding: 101 101 4
Width: 2046
VWidth: 0
Flags: W
HStem: 427 36<999.16 1040.02> 546 21<989.26 1037>
VStem: 970 58<438.536 505.517> 1008 48<492.162 556.34>
LayerCount: 2
Fore
SplineSet
1093 484 m 1xe0
 1082 458 1029 427 994 427 c 0
 979 427 970 436 970 449 c 0xe0
 970 464 995 509 1006 535 c 0
 1007 539 1008 541 1008 542 c 0
 1008 544 1005 546 1002 546 c 0
 997 546 992 543 990 538 c 2
 942 428 l 1
 888 428 l 1
 952 574 l 1
 986 556 l 1
 997 566 1015 567 1029 567 c 0
 1045 567 1056 558 1056 543 c 0xd0
 1056 527 1039 496 1030 474 c 0
 1029 472 1028 468 1028 467 c 0
 1028 464 1030 463 1034 463 c 0
 1048 463 1076 484 1082 497 c 1
 1093 484 l 1xe0
EndSplineSet
Validated: 1
EndChar

StartChar: f
Encoding: 102 102 5
Width: 2046
VWidth: 0
Flags: W
HStem: 119 77<187.361 206.103>
VStem: 178 53<144.948 191.462>
LayerCount: 2
Fore
SplineSet
178 124 m 0
 178 131 184 140 184 153 c 0
 185 184 199 196 216 196 c 0
 225 196 231 191 231 183 c 0
 231 172 221 162 214 152 c 0
 194 125 196 119 185 119 c 0
 181 119 178 121 178 124 c 0
EndSplineSet
Validated: 1
EndChar

StartChar: g
Encoding: 103 103 6
Width: 2046
VWidth: 0
Flags: W
HStem: 108 25<65.0117 133.997>
VStem: 134 69<83.5699 121.5>
LayerCount: 2
Fore
SplineSet
0 -35 m 0
 42 9 85 51 129 91 c 0
 132 94 134 97 134 100 c 0
 134 105 130 108 122 108 c 2
 76 108 l 2
 69 108 65 112 65 120 c 0
 65 128 69 133 77 133 c 2
 178 133 l 2
 195 133 203 127 203 116 c 0
 203 108 199 99 190 91 c 0
 147 52 107 11 65 -35 c 1
 0 -35 l 0
EndSplineSet
Validated: 1
EndChar

StartChar: h
Encoding: 104 104 7
Width: 2046
VWidth: 0
Flags: W
HStem: -173 28<42.2849 60.462> 110 23<113.289 163.997>
VStem: 11 31<-156.5 -103.564> 164 58<55.3594 119>
LayerCount: 2
Fore
SplineSet
163 96 m 2
 164 98 164 100 164 102 c 0
 164 106 160 110 151 110 c 2
 124 110 l 2
 117 110 113 113 113 119 c 0
 113 123 115 128 121 130 c 0
 128 132 138 133 165 133 c 0
 202 133 222 128 222 110 c 0
 222 105 220 99 217 93 c 2
 128 -106 l 2
 104 -158 83 -173 50 -173 c 0
 22 -173 11 -163 11 -150 c 0
 11 -125 52 -34 112 -18 c 1
 163 96 l 2
49 -119 m 0
 43 -132 42 -140 42 -142 c 0
 42 -144 44 -145 46 -145 c 0
 49 -145 54 -143 56 -139 c 0
 65 -126 87 -82 100 -47 c 1
 84 -52 62 -89 49 -119 c 0
EndSplineSet
Validated: 1
EndChar

StartChar: i
Encoding: 105 105 8
Width: 2046
VWidth: 0
Flags: W
HStem: 672 36<1284.12 1324.56> 791 21<1281.62 1323>
VStem: 1255 58<683.059 749.149> 1292 48<733.813 801.447>
LayerCount: 2
Fore
SplineSet
1377 729 m 1xe0
 1366 703 1314 672 1279 672 c 0
 1264 672 1255 680 1255 693 c 0xe0
 1255 708 1280 753 1291 779 c 0
 1292 783 1292 786 1292 787 c 0
 1292 789 1291 791 1288 791 c 0
 1283 791 1278 788 1276 783 c 2
 1227 673 l 1
 1172 673 l 1
 1237 819 l 1
 1272 801 l 1
 1283 811 1301 812 1315 812 c 0
 1331 812 1340 803 1340 788 c 0xd0
 1340 772 1324 742 1315 720 c 0
 1314 718 1313 714 1313 713 c 0
 1313 710 1315 708 1319 708 c 0
 1333 708 1361 729 1367 742 c 1
 1377 729 l 1xe0
EndSplineSet
Validated: 1
EndChar

StartChar: j
Encoding: 106 106 9
Width: 2046
VWidth: 0
Flags: W
HStem: 416 35<1243.82 1290.37> 638 24<1162.48 1194.18>
VStem: 1089 55<417 472.167>
LayerCount: 2
Fore
SplineSet
1330 472 m 2
 1319 447 1270 416 1247 416 c 0
 1225 416 1216 421 1213 443 c 0
 1210 459 1206 493 1204 526 c 1
 1173 497 1152 459 1144 417 c 1
 1089 417 l 1
 1102 478 1144 524 1202 554 c 1
 1199 599 1197 615 1195 625 c 0
 1194 634 1185 638 1172 638 c 0
 1166 638 1162 641 1162 646 c 0
 1162 655 1167 662 1192 662 c 0
 1239 662 1249 648 1251 585 c 1
 1273 602 1281 623 1293 660 c 1
 1348 660 l 1
 1331 614 1293 581 1253 558 c 1
 1256 514 1262 473 1264 459 c 0
 1264 453 1268 451 1272 451 c 0
 1286 451 1314 472 1320 485 c 1
 1330 473 l 1
 1330 472 l 2
EndSplineSet
Validated: 1
EndChar

StartChar: k
Encoding: 107 107 10
Width: 2046
VWidth: 0
Flags: W
HStem: -22 42<183.376 244.19>
VStem: 182 64<-17.7219 16.1117>
LayerCount: 2
Fore
SplineSet
205 -22 m 0
 194 -22 182 -16 182 -7 c 0
 182 8 205 20 223 20 c 0
 234 20 246 14 246 6 c 0
 246 -10 221 -22 205 -22 c 0
EndSplineSet
Validated: 1
EndChar

StartChar: l
Encoding: 108 108 11
Width: 2046
VWidth: 0
Flags: W
HStem: 86 22<274.038 318.953> 182 22<292.21 341>
VStem: 234 40<108.207 127.775> 253 38<153.721 180.356>
LayerCount: 2
Fore
SplineSet
341 182 m 2xd0
 338 182 335 182 332 182 c 0
 306 182 291 178 291 166 c 0xd0
 291 160 297 157 302 156 c 0
 309 155 316 152 316 143 c 0
 316 132 305 129 294 128 c 0
 283 127 274 125 274 116 c 0
 274 111 280 108 292 108 c 0
 298 108 301 109 308 109 c 0
 315 109 319 103 319 98 c 0
 319 87 310 86 285 86 c 0
 243 86 234 97 234 111 c 0xe0
 234 124 245 135 264 140 c 1
 257 144 253 153 253 161 c 0
 253 196 288 204 331 204 c 0
 342 204 359 204 368 203 c 1
 341 182 l 2xd0
EndSplineSet
Validated: 1
EndChar

StartChar: m
Encoding: 109 109 12
Width: 2046
VWidth: 0
Flags: W
HStem: 88 22<450.063 495.967> 184 22<468.855 517>
VStem: 411 39<110.207 130.014> 428 39<155.645 182.499>
LayerCount: 2
Fore
SplineSet
517 184 m 2xd0
 514 184 510 184 507 184 c 0
 481 184 467 180 467 168 c 0xd0
 467 162 473 159 478 158 c 0
 485 157 493 154 493 145 c 0
 493 134 480 131 469 130 c 0
 458 129 450 127 450 118 c 0
 450 113 456 110 468 110 c 0
 474 110 477 111 484 111 c 0
 491 111 496 105 496 100 c 0
 496 89 486 88 461 88 c 0
 419 88 411 99 411 113 c 0xe0
 411 126 421 137 440 142 c 1
 433 146 428 155 428 163 c 0
 428 198 463 206 506 206 c 0
 517 206 534 205 543 204 c 1
 517 184 l 2xd0
EndSplineSet
Validated: 1
EndChar

StartChar: n
Encoding: 110 110 13
Width: 2046
VWidth: 0
Flags: W
HStem: -1 21G<366.165 404.923>
LayerCount: 2
Fore
SplineSet
368 -1 m 1
 348 217 l 2
 348 219 348 222 347 223 c 0
 345 227 340 226 333 222 c 2
 330 221 l 2
 325 218 319 219 317 223 c 0
 313 230 316 239 336 250 c 0
 365 266 384 271 392 256 c 0
 394 252 396 247 396 240 c 2
 416 25 l 1
 368 -1 l 1
EndSplineSet
Validated: 33
EndChar

StartChar: o
Encoding: 111 111 14
Width: 2046
VWidth: 0
Flags: W
HStem: -180 27<184.225 202.013> -62 19<302 348> 22 43<383 395.753> 43 22<243.003 277.996 332 383>
VStem: 155 29<-163.5 -110.605> 278 54<-20.6875 43>
LayerCount: 2
Fore
SplineSet
294 -62 m 1xdc
 265 -124 l 2
 246 -166 226 -180 193 -180 c 0
 165 -180 155 -170 155 -157 c 0
 155 -149 156 -139 164 -121 c 0
 180 -84 204 -55 247 -43 c 1
 274 25 l 2
 275 29 278 34 278 36 c 0
 278 42 272 43 264 43 c 2
 252 43 l 2
 246 43 243 47 243 54 c 0
 243 61 247 65 253 65 c 2
 425 65 l 1xdc
 401 39 398 36 393 22 c 1
 370 22 l 1xec
 373 31 378 38 383 43 c 2
 332 43 l 2
 332 42 332 41 332 40 c 0
 332 34 330 23 322 1 c 2
 302 -43 l 1
 356 -43 l 1
 348 -62 l 1
 294 -62 l 1xdc
191 -126 m 0
 185 -139 184 -146 184 -148 c 0
 184 -150 186 -153 188 -153 c 0
 191 -153 196 -150 198 -146 c 0
 207 -133 221 -107 234 -73 c 1
 218 -78 204 -96 191 -126 c 0
EndSplineSet
Validated: 1
EndChar

StartChar: p
Encoding: 112 112 15
Width: 2046
VWidth: 0
Flags: W
HStem: -171 35<412.842 458.655> 43 23<334.164 364.084>
VStem: 263 52<-170 -115.439>
LayerCount: 2
Fore
SplineSet
495 -116 m 2
 485 -141 438 -171 416 -171 c 0
 396 -171 386 -163 383 -143 c 0
 380 -127 377 -95 375 -63 c 1
 345 -91 322 -130 315 -170 c 1
 263 -170 l 1
 275 -111 316 -67 372 -38 c 1
 369 5 367 21 365 31 c 0
 364 39 355 43 343 43 c 0
 337 43 334 47 334 52 c 0
 334 61 338 66 362 66 c 0
 407 66 417 54 419 -7 c 1
 439 9 448 29 460 65 c 1
 512 65 l 1
 496 20 461 -12 422 -34 c 1
 425 -77 429 -115 431 -129 c 0
 431 -135 434 -136 438 -136 c 0
 451 -136 479 -116 485 -103 c 1
 496 -116 l 1
 495 -116 l 2
EndSplineSet
Validated: 1
EndChar

StartChar: q
Encoding: 113 113 16
Width: 2046
VWidth: 0
Flags: W
HStem: 16 36<691.752 759.004> 42 20G<764 775> 168 23<667 732 798 811> 224 23<681 747.892 804 826>
VStem: 678 59<27.4595 93.4879> 703 56<55.5229 123.943> 748 57<191.306 223.951>
LayerCount: 2
Fore
SplineSet
775 44 m 1x78
 753 28 725 16 705 16 c 0
 689 16 678 27 678 38 c 0xb8
 678 65 703 83 703 108 c 0xb4
 703 118 693 123 674 125 c 1
 680 138 l 1
 702 143 720 154 732 168 c 1
 654 168 l 1
 667 191 l 1
 745 191 l 2
 746 196 748 203 748 210 c 0
 748 218 745 223 739 224 c 2
 670 224 l 1
 681 247 l 1
 838 247 l 1
 826 224 l 1
 804 224 l 2
 805 223 805 220 805 218 c 0xb2
 805 209 802 199 798 191 c 1
 823 191 l 1
 811 168 l 1
 782 168 l 1
 767 151 746 136 727 133 c 1
 745 131 759 126 759 110 c 0xb4
 759 95 737 69 737 57 c 0
 737 54 741 52 744 52 c 0xb8
 750 52 760 57 768 62 c 1
 775 44 l 1x78
EndSplineSet
Validated: 1
EndChar

StartChar: r
Encoding: 114 114 17
Width: 2046
VWidth: 0
Flags: W
HStem: -180 46<550.33 596.715> -179 29<637.707 730.311> -88 23<609 618 688 718> -28 32<701.004 769.457>
VStem: 550 251
LayerCount: 2
Fore
SplineSet
729 -171 m 1x78
 717 -177 700 -179 683 -179 c 0x78
 658 -179 630 -176 607 -171 c 1
 595 -177 583 -180 574 -180 c 0
 556 -180 550 -172 550 -161 c 0
 550 -148 557 -134 572 -134 c 0xb8
 580 -134 591 -137 597 -139 c 0
 602 -131 607 -124 618 -88 c 1
 593 -88 l 1
 609 -65 l 1
 629 -65 l 1
 651 -10 686 4 742 4 c 0
 773 4 789 3 801 2 c 1
 767 -33 l 1
 760 -30 744 -28 729 -28 c 0
 714 -28 697 -42 688 -65 c 1
 741 -65 l 1
 718 -88 l 1
 677 -88 l 1
 669 -125 655 -137 637 -147 c 1
 642 -149 650 -150 659 -150 c 0
 687 -150 730 -141 749 -131 c 1
 729 -171 l 1x78
EndSplineSet
Validated: 1
EndChar

StartChar: s
Encoding: 115 115 18
Width: 2046
VWidth: 0
Flags: W
HStem: 49 43<843.247 857> 49 22<857 901 956.004 1010>
VStem: 901 55<71 132.688>
LayerCount: 2
Fore
SplineSet
1048 293 m 1x60
 959 88 l 2
 958 84 956 81 956 79 c 0
 956 73 961 71 969 71 c 2
 1001 71 l 2
 1007 71 1010 67 1010 60 c 0
 1010 53 1007 49 1000 49 c 2
 814 49 l 1x60
 838 75 841 78 846 92 c 1
 869 92 l 1xa0
 866 83 862 76 857 71 c 2
 901 71 l 2
 901 72 901 74 901 75 c 0
 901 81 903 91 912 113 c 2
 989 293 l 1
 1048 293 l 1x60
EndSplineSet
Validated: 1
EndChar

StartChar: t
Encoding: 116 116 19
Width: 2046
VWidth: 0
Flags: W
HStem: -124 24<883 922.707> 48 23<860.344 886.996 945.792 1001.5>
VStem: 981 55<-15.2031 47.9235>
LayerCount: 2
Fore
SplineSet
793 -173 m 1
 886 35 l 2
 887 37 887 39 887 41 c 0
 887 45 882 48 873 48 c 2
 870 48 l 2
 864 48 860 51 860 56 c 0
 860 65 865 71 890 71 c 0
 917 71 936 67 942 57 c 1
 953 65 968 71 988 71 c 0
 1022 71 1036 61 1036 43 c 0
 1036 36 1033 27 1029 18 c 2
 992 -63 l 2
 975 -102 944 -124 891 -124 c 0
 885 -124 878 -123 872 -123 c 2
 850 -173 l 1
 793 -173 l 1
973 13 m 2
 979 27 981 33 981 37 c 0
 981 44 976 48 966 48 c 0
 954 48 945 43 940 32 c 2
 883 -100 l 2
 886 -100 890 -100 892 -100 c 0
 914 -100 927 -91 939 -63 c 2
 973 13 l 2
EndSplineSet
Validated: 1
EndChar

StartChar: u
Encoding: 117 117 20
Width: 2046
VWidth: 0
Flags: W
HStem: 109 23<1248.96 1284.68>
VStem: 1234 53<-71.2859 8.95277> 1285 54<52.8277 108.693>
LayerCount: 2
Fore
SplineSet
1069 -174 m 1xc0
 1189 93 l 2
 1202 123 1228 132 1272 132 c 0
 1319 132 1339 120 1339 103 c 0xa0
 1339 68 1301 26 1261 18 c 1
 1279 13 1287 2 1287 -15 c 0
 1287 -21 1286 -28 1274 -55 c 0
 1252 -102 1208 -119 1167 -126 c 1
 1176 -103 l 1
 1198 -90 1213 -76 1224 -53 c 0
 1233 -33 1234 -30 1234 -19 c 0
 1234 -3 1226 6 1208 10 c 1
 1126 -174 l 1
 1069 -174 l 1xc0
1214 24 m 1
 1247 36 1264 50 1272 61 c 0
 1279 70 1285 84 1285 95 c 0
 1285 103 1281 109 1271 109 c 0
 1258 109 1249 101 1243 88 c 2
 1214 24 l 1
EndSplineSet
Validated: 1
EndChar

StartChar: v
Encoding: 118 118 21
Width: 2046
VWidth: 0
Flags: W
HStem: 200 78<1418.9 1438.04 1478.51 1496.17>
VStem: 1409 54<225.948 272.731> 1468 54<227.049 273.189>
LayerCount: 2
Fore
SplineSet
1409 206 m 0
 1409 213 1415 221 1415 234 c 0
 1416 265 1431 278 1448 278 c 0
 1457 278 1463 272 1463 264 c 0
 1463 253 1453 243 1446 233 c 0
 1426 206 1427 200 1416 200 c 0
 1412 200 1409 203 1409 206 c 0
1468 206 m 0
 1468 213 1475 221 1475 234 c 0
 1476 265 1489 278 1506 278 c 0
 1515 278 1522 272 1522 264 c 0
 1522 253 1511 243 1504 233 c 0
 1484 206 1487 200 1476 200 c 0
 1472 200 1468 203 1468 206 c 0
EndSplineSet
Validated: 1
EndChar

StartChar: w
Encoding: 119 119 22
Width: 2046
VWidth: 0
Flags: W
HStem: 143 31<1348.01 1430>
VStem: 1430 83<119.585 159.5>
LayerCount: 2
Fore
SplineSet
1270 -27 m 0
 1320 25 1371 76 1424 124 c 0
 1428 128 1430 131 1430 135 c 0
 1430 141 1425 143 1416 143 c 2
 1360 143 l 2
 1352 143 1348 149 1348 159 c 0
 1348 169 1353 174 1362 174 c 2
 1484 174 l 2
 1506 174 1513 166 1513 153 c 0
 1513 143 1507 134 1497 124 c 0
 1445 78 1397 29 1348 -27 c 1
 1270 -27 l 0
EndSplineSet
Validated: 1
EndChar

StartChar: x
Encoding: 120 120 23
Width: 2046
VWidth: 0
Flags: W
HStem: -205 26<1346.6 1398.93> 23 24<1414.43 1478.49>
VStem: 1321 49<-191 -168.343> 1479 52<-37.1881 22.9747>
LayerCount: 2
Fore
SplineSet
1357 -12 m 1
 1362 0 1375 13 1391 23 c 0
 1415 38 1440 47 1469 47 c 0
 1491 47 1531 46 1531 15 c 0
 1531 6 1528 -5 1513 -39 c 2
 1465 -146 l 2
 1446 -189 1417 -205 1370 -205 c 0
 1336 -205 1321 -199 1321 -183 c 0
 1321 -180 1321 -175 1322 -172 c 2
 1379 -152 l 2
 1375 -158 1370 -170 1370 -174 c 0
 1370 -177 1373 -179 1380 -179 c 0
 1388 -179 1395 -177 1400 -165 c 2
 1466 -16 l 2
 1476 7 1479 15 1479 17 c 0
 1479 20 1475 23 1467 23 c 0
 1426 23 1379 1 1367 -25 c 1
 1357 -12 l 1
EndSplineSet
Validated: 1
EndChar

StartChar: y
Encoding: 121 121 24
Width: 2046
VWidth: 0
Flags: W
HStem: 7 13<1356.12 1370>
VStem: 1370 33<0 7>
LayerCount: 2
Fore
SplineSet
1318 -116 m 1
 1369 0 l 2
 1369 1 1370 2 1370 3 c 0
 1370 5 1368 7 1363 7 c 2
 1361 7 l 2
 1358 7 1356 9 1356 12 c 0
 1356 17 1359 20 1372 20 c 0
 1391 20 1403 17 1403 7 c 0
 1403 5 1402 2 1401 -1 c 2
 1350 -116 l 1
 1318 -116 l 1
EndSplineSet
Validated: 1
EndChar

StartChar: z
Encoding: 122 122 25
Width: 2046
VWidth: 0
Flags: W
HStem: 7 13<1406.12 1420>
VStem: 1420 33<0 7>
LayerCount: 2
Fore
SplineSet
1368 -116 m 1
 1420 0 l 2
 1420 1 1420 2 1420 3 c 0
 1420 5 1418 7 1413 7 c 2
 1411 7 l 2
 1408 7 1406 9 1406 12 c 0
 1406 17 1409 20 1422 20 c 0
 1441 20 1453 17 1453 7 c 0
 1453 5 1452 2 1451 -1 c 2
 1400 -116 l 1
 1368 -116 l 1
EndSplineSet
Validated: 1
EndChar

StartChar: one
Encoding: 49 49 26
Width: 2046
VWidth: 0
Flags: W
HStem: -70 22<1514.58 1569.36> 38 20<1542.06 1580>
VStem: 1471 43<-47.958 -17.905> 1560 43<0.756067 45>
LayerCount: 2
Fore
SplineSet
1619 -17 m 1
 1615 -26 1605 -37 1593 -45 c 0
 1570 -61 1551 -70 1521 -70 c 0
 1489 -70 1471 -66 1471 -44 c 0
 1471 -36 1475 -25 1481 -11 c 2
 1492 13 l 2
 1506 46 1524 58 1564 58 c 0
 1596 58 1603 51 1603 39 c 0
 1603 29 1600 15 1591 3 c 0
 1579 -13 1544 -17 1522 -18 c 1
 1517 -28 1514 -36 1514 -41 c 0
 1514 -46 1519 -48 1526 -48 c 0
 1559 -48 1597 -30 1610 -6 c 1
 1619 -17 l 1
1528 -2 m 1
 1546 -1 1560 15 1560 34 c 0
 1560 36 1556 38 1553 38 c 0
 1548 38 1545 35 1541 26 c 2
 1528 -2 l 1
EndSplineSet
Validated: 1
EndChar

StartChar: two
Encoding: 50 50 27
Width: 2046
VWidth: 0
Flags: W
HStem: 506 14<950.189 966> 604 50<893.099 1103.73>
LayerCount: 2
Fore
SplineSet
966 506 m 1
 953 506 938 513 923 523 c 0
 900 538 882 557 871 583 c 0
 863 601 847 636 874 648 c 0
 882 651 894 654 930 654 c 2
 1042 653 l 2
 1087 653 1112 634 1130 592 c 0
 1143 562 1144 547 1130 541 c 0
 1128 540 1124 538 1121 538 c 2
 1081 580 l 2
 1088 579 1101 579 1104 580 c 0
 1107 581 1108 586 1105 592 c 0
 1102 599 1096 603 1084 603 c 2
 928 604 l 2
 904 604 895 603 893 602 c 0
 890 601 890 597 893 590 c 0
 908 554 946 520 974 520 c 1
 966 506 l 1
EndSplineSet
Validated: 33
EndChar
